<svg width="22" height="22" viewBox="0 0 22 22" fill="none" xmlns="http://www.w3.org/2000/svg">
<path d="M15.5 3.20404C14.1762 2.43827 12.6393 2 11 2C6.02944 2 2 6.02944 2 11C2 12.4397 2.33806 13.8004 2.93911 15.0072C3.09885 15.3279 3.15201 15.6945 3.05941 16.0405L2.52336 18.044C2.29066 18.9137 3.08631 19.7093 3.95601 19.4766L5.95945 18.9406C6.30554 18.848 6.67209 18.9012 6.99278 19.0609C8.19953 19.662 9.56027 20 11 20C15.9705 20 20 15.9705 20 11C20 9.36074 19.5617 7.82378 18.796 6.5" stroke="#88EF1C" stroke-width="3" stroke-linecap="round"/>
</svg>
