<svg width="173" height="115" viewBox="0 0 173 115" fill="none" xmlns="http://www.w3.org/2000/svg">
<path d="M1.92977 62.7883C13.2225 76.9399 46.8147 114.678 86.5536 114.678C126.293 114.678 159.885 76.9413 171.177 62.7883C173.606 59.6434 173.606 55.2121 171.177 52.2117C159.885 38.0601 126.293 0.322426 86.5536 0.322426C46.8147 0.179481 13.2225 37.9171 1.92977 52.0688C-0.643256 55.2136 -0.643256 59.6434 1.92977 62.7883ZM86.5536 23.0508C105.565 23.0508 120.861 38.346 120.861 57.3577C120.861 76.3695 105.565 91.6647 86.5536 91.6647C67.5418 91.6647 52.2466 76.3695 52.2466 57.3577C52.2466 38.346 67.5418 23.0508 86.5536 23.0508Z" fill="#787070"/>
<path d="M86.5534 74.5111C96.027 74.5111 103.707 66.8312 103.707 57.3576C103.707 47.884 96.027 40.2041 86.5534 40.2041C77.0798 40.2041 69.3999 47.884 69.3999 57.3576C69.3999 66.8312 77.0798 74.5111 86.5534 74.5111Z" fill="#787070"/>
</svg>
